<?xml version="1.0" standalone="no"?>
<!DOCTYPE svg PUBLIC "-//W3C//DTD SVG 1.1//EN" "http://www.w3.org/Graphics/SVG/1.1/DTD/svg11.dtd" >
<svg>
<metadata>
Created by FontForge 20110222 at Mon Mar  7 12:46:47 2011
 By www-data
(c)G.M.
</metadata>
<defs>
<font id="WalkwayUpperExpandUltra" horiz-adv-x="709" >
  <font-face 
    font-family="Walkway Upper Expand Ultra"
    font-weight="400"
    font-stretch="normal"
    units-per-em="1000"
    panose-1="0 0 4 0 0 0 0 0 0 0"
    ascent="800"
    descent="-200"
    x-height="488"
    cap-height="678"
    bbox="-223 -179 1415 874"
    underline-thickness="30"
    underline-position="-118"
    unicode-range="U+0020-2122"
  />
    <missing-glyph />
    <glyph glyph-name="space" unicode=" " horiz-adv-x="478" 
 />
    <glyph glyph-name="exclam" unicode="!" horiz-adv-x="262" 
d="M95 162v516h74v-516h-74zM131 0q-37 0 -37 32v61q0 31 37 31q36 0 36 -31v-61q0 -32 -36 -32z" />
    <glyph glyph-name="quotedbl" unicode="&#x22;" horiz-adv-x="394" 
d="M274 547q-37 0 -37 27v72q0 26 37 26t37 -26v-72q0 -27 -37 -27zM117 547q-35 0 -35 27v72q0 26 35 26q38 0 38 -26v-72q0 -27 -38 -27z" />
    <glyph glyph-name="numbersign" unicode="#" horiz-adv-x="717" 
d="M622 341h-121l-19 -53h119l-18 -58h-122l-25 -69h-76l26 69h-115l-26 -69h-75l26 69h-119l18 58h121l20 53h-123l25 58h119l25 69h76l-26 -69h114l24 69h77l-25 -69h121zM312 341l-20 -53h115l18 53h-113z" />
    <glyph glyph-name="dollar" unicode="$" horiz-adv-x="867" 
d="M715 34q-67 -33 -152 -45v-59h-73v52q-23 -1 -45 -1q-42 0 -80 3v-54h-74v62q-264 46 -264 229v31h73v-27q0 -134 191 -170v283q-235 42 -235 172q0 145 235 180v63h74v-57q26 1 55 1q37 0 70 -2v58h73v-66q238 -39 242 -228h-73q-11 135 -169 166v-264q123 -23 177 -51
q84 -44 84 -136q0 -88 -109 -140zM490 634q-33 2 -70 2q-29 0 -55 -2v-244l125 -17v261zM724 242q-40 30 -161 55v-246q75 12 124 39q63 34 63 87q0 45 -26 65zM291 626q-161 -28 -161 -116q0 -49 59 -78q33 -16 102 -30v224zM490 309l-125 17v-280q38 -3 82 -3q22 0 43 1
v265z" />
    <glyph glyph-name="percent" unicode="%" horiz-adv-x="1012" 
d="M756 -19q-203 0 -203 184q0 188 204 188q203 0 203 -188q0 -184 -204 -184zM223 -1h-96l686 679h96zM256 288q-201 0 -201 183q0 187 203 187q204 0 204 -187q0 -183 -206 -183zM756 292q-128 0 -128 -127q0 -123 129 -123q128 0 128 123q0 127 -129 127zM256 597
q-126 0 -126 -126q0 -123 128 -123q129 0 129 123q0 126 -131 126z" />
    <glyph glyph-name="ampersand" unicode="&#x26;" horiz-adv-x="814" 
d="M654 95q-115 -111 -294 -111q-110 0 -200 36q-120 47 -120 140q0 79 95 143q53 35 166 79q-139 59 -139 157q0 75 86 112q62 27 142 27q84 0 145 -26q86 -36 86 -115q0 -83 -184 -167q-11 -5 -127 -51q-81 -32 -122 -59q-75 -48 -75 -100q0 -55 85 -88q73 -27 154 -27
q177 0 258 105q44 56 44 139h74v-308h-74v114zM487 602q-42 15 -94 15q-59 0 -103 -17q-55 -22 -55 -62q0 -78 151 -125q162 65 162 125q0 42 -61 64z" />
    <glyph glyph-name="quotesingle" unicode="'" horiz-adv-x="236" 
d="M117 547q-35 0 -35 27v72q0 26 35 26q38 0 38 -26v-72q0 -27 -38 -27z" />
    <glyph glyph-name="parenleft" unicode="(" horiz-adv-x="315" 
d="M252 -168q-178 199 -178 451q0 253 178 451h88q-103 -112 -149 -223q-44 -105 -44 -228t44 -228q46 -111 149 -223h-88z" />
    <glyph glyph-name="parenright" unicode=")" horiz-adv-x="315" 
d="M56 -168h-89q106 113 154 223q46 105 46 228t-46 228q-48 110 -154 223h89q184 -195 184 -451q0 -255 -184 -451z" />
    <glyph glyph-name="asterisk" unicode="*" horiz-adv-x="459" 
d="M335 489l-81 26v-43q0 -29 -37 -29t-37 29v43l-82 -26q-29 -9 -46 8q-9 9 -9 17q0 16 29 28q11 4 49 15q-77 22 -77 44q0 8 10 17.5t26 9.5q7 0 13 -1q2 -1 87 -28v44q0 29 37 29t37 -29v-44l82 26q9 3 16 3q17 0 29 -10q8 -10 8 -18q0 -17 -32 -30q-22 -6 -43 -12
q76 -21 76 -43q0 -8 -8 -17q-17 -19 -47 -9z" />
    <glyph glyph-name="plus" unicode="+" horiz-adv-x="756" 
d="M414 222v-155h-73v155h-258v59h258v152h73v-152h260v-59h-260z" />
    <glyph glyph-name="comma" unicode="," horiz-adv-x="354" 
d="M184 -72q-9 -19 -42 -19q-30 0 -30 26q0 6 2 11l58 122q9 18 34 18q37 0 37 -26q0 -5 -2 -10z" />
    <glyph glyph-name="hyphen" unicode="-" horiz-adv-x="472" 
d="M47 254v20h392v-20h-392z" />
    <glyph glyph-name="hyphen" unicode="&#x2010;" horiz-adv-x="472" 
d="M47 254v20h392v-20h-392z" />
    <glyph glyph-name="period" unicode="." horiz-adv-x="282" 
d="M142 -2q-37 0 -37 23v41q0 23 37 23q36 0 36 -23v-41q0 -23 -36 -23z" />
    <glyph glyph-name="slash" unicode="/" horiz-adv-x="472" 
d="M43 0h-82l481 694h82z" />
    <glyph glyph-name="zero" unicode="0" horiz-adv-x="788" 
d="M632 46q-93 -58 -236 -58q-144 0 -238 58q-115 70 -115 202v162q0 132 115 202q96 59 238 59q144 0 236 -58q113 -70 113 -203v-162q0 -132 -113 -202zM672 410q0 97 -85 151q-77 49 -193 49q-117 0 -194 -48q-84 -53 -84 -152v-162q0 -97 85 -151q77 -48 193 -48
q117 0 192 46q86 54 86 153v162z" />
    <glyph glyph-name="one" unicode="1" horiz-adv-x="558" 
d="M368 0v559l-180 -103h-129l325 190h57v-646h-73z" />
    <glyph glyph-name="two" unicode="2" horiz-adv-x="788" 
d="M55 0q3 198 282 316q47 19 189 78q111 47 111 95q0 59 -81 87q-60 20 -147 20q-138 0 -200.5 -46t-62.5 -144h-74q0 145 110 205q84 46 219 46q114 0 191 -28q117 -43 117 -143q0 -89 -226 -180q-66 -25 -164 -67q-56 -28 -109 -75q-64 -57 -74 -103h615v-61h-696z" />
    <glyph glyph-name="three" unicode="3" horiz-adv-x="788" 
d="M401 -11q-142 0 -237 42q-131 58 -131 184v31h74v-44q0 -82 101 -122q77 -30 188 -30q103 0 181 27q104 36 104 108q0 130 -260 130h-84v61h86q239 0 239 113q0 59 -92 87q-65 20 -157 20q-147 0 -213 -43.5t-66 -135.5h-74q0 145 124 201q86 39 225 39q119 0 199 -26
q128 -42 128 -142q0 -102 -119 -142q136 -46 136 -162q0 -107 -130 -159q-94 -37 -222 -37z" />
    <glyph glyph-name="four" unicode="4" horiz-adv-x="788" 
d="M589 210v-210h-74v210h-512l310 437h84l-269 -376h387v377l74 -3v-374h174v-61h-174z" />
    <glyph glyph-name="five" unicode="5" horiz-adv-x="788" 
d="M389 -11q-142 0 -232 40q-126 58 -126 207h73q0 -111 93 -153q74 -33 193 -33q113 0 188 35q93 45 93 135q0 89 -100 134q-79 37 -192 37q-168 0 -252 -93h-69l22 348h623v-61h-551l-12 -195q92 62 245 62q136 0 233 -48q126 -61 126 -183q0 -123 -123 -185
q-95 -47 -232 -47z" />
    <glyph glyph-name="six" unicode="6" horiz-adv-x="788" 
d="M656 416q0 101 -85 143q-72 36 -174 36q-98 0 -166 -31q-92 -41 -93 -126v-85q87 69 255 69q125 0 214 -45q115 -57 115 -170q0 -114 -118 -170q-89 -43 -214 -43t-214 44q-114 56 -114 169v11l1 7v216q0 113 118 169q90 43 217 43q124 0 212 -44q118 -57 118 -193h-72z
M567 329q-71 35 -176 35q-103 0 -172 -33q-85 -42 -85 -124q0 -81 85 -122q70 -34 172 -34q103 0 173 33q86 42 86 123t-83 122z" />
    <glyph glyph-name="seven" unicode="7" horiz-adv-x="788" 
d="M298 0h-82l413 585h-562v61h686z" />
    <glyph glyph-name="eight" unicode="8" horiz-adv-x="811" 
d="M406 -11q-137 0 -231 34q-140 50 -140 168q0 120 159 165q-112 43 -112 125q0 104 123 148q80 28 201 28t201 -28q125 -44 125 -148q0 -82 -116 -125q162 -45 162 -167q0 -116 -138 -166q-93 -34 -234 -34zM406 596q-251 0 -251 -116q0 -45 83 -73q75 -25 170 -25
q96 0 167 25q83 28 83 75q0 114 -252 114zM408 321q-300 0 -300 -131q0 -79 107 -115q77 -25 191 -25t190 25q108 36 108 115q0 131 -296 131z" />
    <glyph glyph-name="nine" unicode="9" horiz-adv-x="788" 
d="M725 429q0 1 1 2v-234q0 -113 -119 -169q-90 -43 -217 -43q-123 0 -211 43q-117 57 -117 192h72q0 -101 83 -143q71 -35 174 -35q102 0 172 34q85 42 87 123l1 104q-87 -69 -255 -69q-125 0 -213 43q-116 56 -116 171q0 112 116 169q90 45 215 45q124 0 214 -45
q116 -57 116 -169v-14zM572 570q-71 35 -175 35q-103 0 -173 -34q-85 -42 -85 -123q0 -85 92 -126q69 -31 166 -31q103 0 172 34q87 41 87 123q0 80 -84 122z" />
    <glyph glyph-name="colon" unicode=":" horiz-adv-x="329" 
d="M166 344q-37 0 -37 31v59q0 31 37 31q31 0 37 -29v-61q0 -31 -37 -31zM166 -2q-37 0 -37 31v59q0 31 37 31q31 0 37 -29v-61q0 -31 -37 -31z" />
    <glyph glyph-name="semicolon" unicode=";" horiz-adv-x="339" 
d="M193 342q-37 0 -37 31v60q0 32 37 32t37 -32v-60q0 -31 -37 -31zM176 -69q-9 -22 -41 -21q-31 0 -31 29q0 6 2 12l58 143q9 22 34 22q37 0 37 -30q0 -6 -2 -12z" />
    <glyph glyph-name="less" unicode="&#x3c;" horiz-adv-x="722" 
d="M43 215v51l625 172v-61l-499 -137l499 -137v-61z" />
    <glyph glyph-name="equal" unicode="=" horiz-adv-x="850" 
d="M45 262v51h761v-51h-761zM45 167v51h761v-51h-761z" />
    <glyph glyph-name="greater" unicode="&#x3e;" horiz-adv-x="722" 
d="M43 42v61l498 137l-498 137v61l625 -172v-51z" />
    <glyph glyph-name="question" unicode="?" 
d="M514 350q-132 -76 -132 -144v-44h-75v39q0 103 143 186q78 45 106 72.5t28 64.5q0 59 -82 88q-60 21 -146 21q-122 0 -183 -40.5t-75 -129.5l-69 27q23 120 131 168q80 36 198 36q108 0 189 -33q110 -45 110 -137t-143 -174zM343 0q-36 0 -36 32v61q0 31 36 31
q38 0 38 -31v-61q0 -32 -38 -32z" />
    <glyph glyph-name="at" unicode="@" horiz-adv-x="1134" 
d="M739 197q-93 -75 -244 -76q-138 0 -207 69q-49 49 -49 117q0 27 2 40q19 113 122 172q88 50 213 51q157 2 219 -74l14 74h70l-35 -186v0q0 -1 -35 -187v-1v0v0q-3 0 -5 2h7q27 1 64 20t57 41q68 75 68 139q0 117 -141 183q-116 54 -265 54q-176 0 -306 -69
q-153 -80 -153 -226q0 -143 153 -223q130 -68 305 -68q110 0 216 33q124 39 183 109h89q-87 -115 -236 -162q-125 -40 -246 -40q-197 0 -350 79q-191 98 -191 277q0 176 187 273q149 77 344 77q171 0 307 -62q179 -82 179 -237q0 -99 -92 -185q-33 -31 -83 -53
q-54 -23 -98 -23q-68 0 -63 62zM568 512q-102 -1 -176 -49q-86 -56 -86 -153q0 -67 59 -102q51 -29 133 -29q91 0 167 41q87 48 103 131q2 8 2 31q0 55 -38 86q-54 45 -164 44z" />
    <glyph glyph-name="A" unicode="A" horiz-adv-x="859" 
d="M808 0l-131 209h-490l-134 -209h-86l438 678h63l424 -678h-84zM437 592l-210 -322h412z" />
    <glyph glyph-name="B" unicode="B" horiz-adv-x="867" 
d="M485 0h-441v678h458q115 0 194 -32q114 -47 114 -150q0 -91 -126 -139q156 -41 156 -165q0 -110 -132 -158q-90 -34 -223 -34zM656 593q-64 24 -157 24h-382v-234h381q90 0 154 23q85 31 85 95q0 62 -81 92zM674 296q-72 26 -179 26h-378v-261h384q100 0 171 25
q96 34 96 105q0 72 -94 105z" />
    <glyph glyph-name="C" unicode="C" horiz-adv-x="971" 
d="M872 517q-102 107 -329 107q-173 0 -289 -65q-134 -77 -134 -221t127 -219q110 -65 281 -65q219 0 332 108l69 -30q-148 -139 -400 -139q-193 0 -322 73q-160 91 -160 268q0 182 164 276q132 75 332 75q262 0 397 -137z" />
    <glyph glyph-name="D" unicode="D" horiz-adv-x="918" 
d="M374 0h-319v678h370q198 0 315 -71q143 -86 143 -269q0 -184 -173 -271q-133 -67 -336 -67zM697 557q-98 60 -273 60h-296v-556h250q181 0 292 56q140 70 140 221q0 149 -113 219z" />
    <glyph glyph-name="E" unicode="E" horiz-adv-x="761" 
d="M55 0v678h701v-61h-629v-234h557v-60h-557v-262h636v-61h-708z" />
    <glyph glyph-name="F" unicode="F" horiz-adv-x="682" 
d="M127 617v-234h497v-60h-497v-323h-72v678h652v-61h-580z" />
    <glyph glyph-name="G" unicode="G" horiz-adv-x="1023" 
d="M528 -7q-204 0 -335 70q-169 91 -169 274q0 181 164 274q131 74 330 74q153 0 260 -41q147 -56 192 -207h-77q-60 187 -373 187q-177 0 -290 -64q-133 -75 -133 -222q0 -151 139 -225q112 -59 292 -59q138 0 246 49q131 58 131 165v10h-392v61h460q7 -40 7 -60
q0 -151 -160 -227q-123 -59 -292 -59z" />
    <glyph glyph-name="H" unicode="H" horiz-adv-x="918" 
d="M791 0v323h-663v-323h-73v678h73v-295h663v295h73v-678h-73z" />
    <glyph glyph-name="I" unicode="I" horiz-adv-x="181" 
d="M55 0v678h73v-678h-73z" />
    <glyph glyph-name="J" unicode="J" horiz-adv-x="656" 
d="M301 -7q-274 0 -300 186h74q8 -65 59.5 -95t161.5 -30q114 0 164 27q62 33 62 124v473h73v-479q0 -206 -294 -206z" />
    <glyph glyph-name="K" unicode="K" horiz-adv-x="904" 
d="M833 0l-511 350l-194 -107v-243h-73v678h73v-362l672 362h135l-547 -294l559 -384h-114z" />
    <glyph glyph-name="L" unicode="L" horiz-adv-x="682" 
d="M55 0v678h73v-617h578v-61h-651z" />
    <glyph glyph-name="M" unicode="M" horiz-adv-x="1106" 
d="M977 0v567l-397 -567h-55l-397 567v-567h-73v678h80l417 -596l419 596h79v-678h-73z" />
    <glyph glyph-name="N" unicode="N" horiz-adv-x="918" 
d="M790 0l-662 587v-587h-73v678h73q116 -108 332 -295q232 -200 331 -290v585h73v-678h-74z" />
    <glyph glyph-name="O" unicode="O" horiz-adv-x="1022" 
d="M840 66q-129 -73 -328 -73q-197 0 -326 72q-161 91 -161 274q0 179 162 268q126 68 325 68t325 -68q163 -88 163 -268q0 -182 -160 -273zM797 555q-108 59 -285 59q-174 0 -282 -58q-131 -71 -131 -217q0 -148 130 -223q110 -62 283 -62q168 0 277 58q138 74 138 227
q0 145 -130 216z" />
    <glyph glyph-name="P" unicode="P" horiz-adv-x="838" 
d="M467 289h-339v-289h-73v678h427q336 0 336 -197q0 -108 -130 -157q-91 -35 -221 -35zM490 617h-362v-267h363q97 0 166 28q86 35 86 102q0 137 -253 137z" />
    <glyph glyph-name="Q" unicode="Q" horiz-adv-x="1022" 
d="M891 101q-78 -64 -196 -91q36 -15 87 -15h147v-61h-147q-113 0 -181 60q-43 -4 -89 -4q-198 0 -327 73q-160 91 -160 274q0 180 162 269q126 69 325 69t325 -69q163 -88 163 -269q0 -146 -109 -236zM797 555q-108 59 -285 59q-174 0 -281 -58q-132 -72 -132 -219
q0 -122 95 -197q27 48 92 73q54 21 116 21q82 0 146 -34q80 -42 80 -117q0 -11 5 -23q131 22 207 87q87 74 87 190q0 146 -130 218zM557 84q0 43 -52 68q-45 22 -103 22q-48 0 -91 -17q-49 -19 -59 -52q106 -54 260 -54q26 0 50 1q-5 16 -5 32z" />
    <glyph glyph-name="R" unicode="R" horiz-adv-x="867" 
d="M687 331q122 -44 122 -155v-176h-74v173q0 124 -249 124h-358v-297h-73v678h443q324 0 324 -182q0 -117 -135 -165zM501 617h-373v-258h351q103 0 174 26q96 34 96 109q0 123 -248 123z" />
    <glyph glyph-name="S" unicode="S" horiz-adv-x="867" 
d="M686 28q-101 -35 -241 -35q-160 0 -262 37q-156 56 -156 192v31h73v-27q0 -172 347 -172q110 0 189 22q114 32 114 103q0 48 -43 74q-30 18 -99 32q-45 9 -192 32q-175 27 -234 49q-126 46 -126 142q0 177 364 177q380 0 385 -228h-73q-8 110 -109 144q-69 23 -203 23
q-290 0 -290 -116q0 -55 75 -84q55 -21 188 -38q245 -32 327 -68q104 -44 104 -142q0 -100 -138 -148z" />
    <glyph glyph-name="T" unicode="T" horiz-adv-x="736" 
d="M405 617v-617h-73v617h-351v61h774v-61h-350z" />
    <glyph glyph-name="U" unicode="U" horiz-adv-x="896" 
d="M711 39q-91 -46 -263 -46t-265 46q-128 63 -128 218v421h73v-420q0 -204 320 -204t320 200v424h73v-423q0 -152 -130 -216z" />
    <glyph glyph-name="V" unicode="V" horiz-adv-x="848" 
d="M458 0h-57l-423 678h81l372 -593l359 593h81z" />
    <glyph glyph-name="W" unicode="W" horiz-adv-x="1309" 
d="M930 0h-57l-216 357l-209 -357h-57l-408 678h80l357 -592l195 339l-150 253h80l357 -592l345 592h79z" />
    <glyph glyph-name="X" unicode="X" horiz-adv-x="815" 
d="M770 0l-360 305l-364 -305h-103l414 348l-394 330h106l341 -287l345 287h104l-394 -330l408 -348h-103z" />
    <glyph glyph-name="Y" unicode="Y" horiz-adv-x="845" 
d="M460 323v-323h-73v323l-450 355h106l380 -298l380 298h105z" />
    <glyph glyph-name="Z" unicode="Z" horiz-adv-x="845" 
d="M28 0v56l669 561h-630v61h742v-55l-671 -562h681v-61h-791z" />
    <glyph glyph-name="bracketleft" unicode="[" horiz-adv-x="315" 
d="M114 -168v902h205v-62h-131v-778h131v-62h-205z" />
    <glyph glyph-name="backslash" unicode="\" horiz-adv-x="472" 
d="M432 0l-485 694h83l484 -694h-82z" />
    <glyph glyph-name="bracketright" unicode="]" horiz-adv-x="315" 
d="M199 -168h-203v62h130l2 24l-2 754h-130v62h205z" />
    <glyph glyph-name="asciicircum" unicode="^" horiz-adv-x="402" 
d="M276 511l-78 74l-76 -74h-88l140 135h48l147 -135h-93z" />
    <glyph glyph-name="underscore" unicode="_" 
d="M-23 -119v48h755v-48h-755z" />
    <glyph glyph-name="grave" unicode="`" horiz-adv-x="261" 
d="M227 533q-20 -7 -43 2l-154 91q-15 8 -15 19q0 15 20 23q23 9 44 -3l153 -90q14 -9 14 -19q0 -16 -19 -23z" />
    <glyph glyph-name="a" unicode="a" horiz-adv-x="761" 
d="M623 91v67q-91 -76 -272 -76q-125 0 -215 42q-119 55 -119 165q0 114 121 169q90 41 218 41q182 0 267 -73v71h74v-406h-74zM23 -1v61h675v-61h-675zM533 410q-73 33 -183 33q-103 0 -176 -35q-85 -42 -85 -119q0 -78 87 -118q71 -33 174 -33t180 35q93 41 93 116
q0 81 -90 121z" />
    <glyph glyph-name="b" unicode="b" horiz-adv-x="761" 
d="M626 47q-89 -57 -232 -57q-172 0 -264 93v-84h-74v679h74v-258q89 91 266 91q143 0 232 -60q105 -71 105 -203t-107 -201zM586 401q-70 49 -185 49q-121 0 -192 -46q-79 -53 -79 -158q0 -94 84 -147q77 -48 188 -48q112 0 181 47q78 53 78 151q0 99 -75 152z" />
    <glyph glyph-name="c" unicode="c" 
d="M551 20q-80 -31 -181 -31q-139 0 -232 53q-115 65 -115 194q0 136 116 206q97 58 246 58q94 0 166 -28q94 -37 130 -132l-69 -24q-24 65 -78.5 94.5t-151.5 29.5q-122 0 -199 -47q-87 -54 -87 -157q0 -94 83 -144q73 -43 190 -43q84 0 149 26q77 30 99 110l71 -22
q-35 -103 -137 -143z" />
    <glyph glyph-name="d" unicode="d" horiz-adv-x="761" 
d="M623 -1v86q-92 -96 -272 -96q-135 0 -227 60q-107 71 -107 200q0 131 107 201q92 61 232 61q179 0 267 -92v259h74v-679h-74zM350 450q-111 0 -182 -50q-79 -55 -79 -151q0 -97 79 -151q71 -48 182 -48t188 50q85 54 85 149q0 107 -87 159q-71 42 -186 42z" />
    <glyph glyph-name="e" unicode="e" 
d="M86 266q21 -128 268 -128q75 0 143 19q82 22 115 74h80q-45 -82 -132 -117q-78 -32 -209 -32q-133 0 -219 38q-119 52 -119 169q0 113 123 168q93 42 222 42q128 0 218 -36q126 -51 126 -159v-37zM23 -1v61h675v-61h-675zM358 443q-93 0 -163 -25q-89 -32 -107 -96h532
q-11 58 -85.5 89.5t-176.5 31.5z" />
    <glyph glyph-name="f" unicode="f" horiz-adv-x="360" 
d="M189 474v-24h150v-62h-150v-389h-73v389h-98v62h98v24q0 192 347 192v-60q-274 0 -274 -132z" />
    <glyph glyph-name="g" unicode="g" horiz-adv-x="736" 
d="M359 -179q-108 0 -182 28q-111 41 -120 159h72q8 -65 62 -95.5t169 -30.5q250 0 250 145v54q-93 -85 -263 -85q-133 0 -223 57q-106 68 -106 193q0 129 109 197q92 57 229 57q167 0 254 -87v76h73v-463q0 -205 -324 -205zM354 439q-103 0 -176 -43q-86 -52 -86 -149
q0 -93 76 -144q68 -46 176 -46q111 0 183 43q83 50 83 144q0 96 -84 149q-71 46 -172 46z" />
    <glyph glyph-name="h" unicode="h" 
d="M577 0v324q0 66 -67 99q-54 27 -139 27q-101 0 -166 -40q-75 -46 -75 -131v-279h-74v678h74v-242q78 75 240 75q106 0 180 -34q101 -46 101 -144v-333h-74z" />
    <glyph glyph-name="i" unicode="i" horiz-adv-x="184" 
d="M90 565q-22 0 -34 24v75q16 23 34 23q15 0 40 -20v-82q-22 -20 -40 -20zM56 93v408h74v-408h-74zM52 -1v62h82v-62h-82z" />
    <glyph glyph-name="j" unicode="j" horiz-adv-x="184" 
d="M90 564q-22 0 -34 24v75q16 24 34 24q16 0 40 -21v-82q-22 -20 -40 -20zM-223 -179v61q275 0 275 148v468h74v-469q0 -208 -349 -208z" />
    <glyph glyph-name="k" unicode="k" horiz-adv-x="718" 
d="M628 0l-349 266l-149 -76v-190h-74v678h74v-416l461 239l149 -2l-397 -198l396 -301h-111z" />
    <glyph glyph-name="l" unicode="l" horiz-adv-x="184" 
d="M56 0v678h74v-678h-74z" />
    <glyph glyph-name="m" unicode="m" horiz-adv-x="1103" 
d="M973 0v317q0 123 -174 123q-86 0 -143 -31q-67 -37 -67 -105v-304h-74v317q0 123 -178 123q-91 0 -147 -43q-60 -46 -60 -124v-273h-74v489h74v-59q74 70 221 70q151 0 213 -85q67 85 232 85q250 0 250 -174v-326h-73z" />
    <glyph glyph-name="n" unicode="n" 
d="M577 0v317q0 65 -67 97q-54 26 -139 26q-101 0 -166 -39q-75 -45 -75 -128v-273h-74v489h74v-63q78 74 240 74q106 0 180 -33q101 -45 101 -141v-326h-74z" />
    <glyph glyph-name="o" unicode="o" horiz-adv-x="736" 
d="M367 82q-130 0 -224 41q-126 55 -126 167q0 113 127 168q95 41 226 41t224 -41q127 -54 127 -168q0 -113 -129 -167q-94 -41 -225 -41zM23 -1v61h688v-61h-688zM555 410q-77 33 -186 33q-107 0 -183 -32q-96 -41 -96 -121q0 -79 96 -119q77 -33 183 -33t182 33
q97 40 97 119q0 80 -93 120z" />
    <glyph glyph-name="p" unicode="p" horiz-adv-x="761" 
d="M628 38q-89 -59 -232 -59q-177 0 -266 92v-239h-74v657h74v-80q88 91 264 91q143 0 232 -58q107 -70 107 -201q0 -134 -105 -203zM402 439q-114 0 -188 -46q-84 -53 -84 -150q0 -106 79 -158q70 -45 192 -45q113 0 183 48q77 53 77 152q0 101 -82 154q-70 45 -177 45z
" />
    <glyph glyph-name="q" unicode="q" horiz-adv-x="761" 
d="M622 -168v236q-85 -89 -274 -89q-135 0 -226 63q-105 72 -105 199q0 128 109 199q93 60 228 60q178 0 268 -92v81h73v-657h-73zM539 390q-77 49 -192 49q-111 0 -182 -50q-75 -54 -75 -149t76 -149q72 -51 182 -51q122 0 192 44q83 52 83 156q0 97 -84 150z" />
    <glyph glyph-name="r" unicode="r" horiz-adv-x="429" 
d="M130 198v-198h-74v489h74v-77q25 26 66 45q87 43 221 43v-60q-149 0 -218 -64t-69 -178z" />
    <glyph glyph-name="s" unicode="s" horiz-adv-x="656" 
d="M502 9q-67 -22 -166 -22q-303 0 -303 209h76q0 -77 53 -112t175 -35q197 0 197 83q0 52 -132 74l-130 14q-94 12 -143 37q-67 34 -67 98q0 79 95 118q69 28 156 28q293 0 293 -187h-77q0 65 -47 94q-50 31 -162 31q-66 0 -117 -18q-65 -23 -65 -66q0 -51 128 -68l143 -18
q201 -25 201 -137q0 -86 -108 -123z" />
    <glyph glyph-name="t" unicode="t" horiz-adv-x="355" 
d="M213 410v-410h-70l-3 410h-134v61h134v143h73v-143h137v-61h-137z" />
    <glyph glyph-name="u" unicode="u" 
d="M577 89v53q-80 -61 -240 -61q-103 0 -174 25q-107 38 -107 126v256h74v-255q0 -96 207 -96q98 0 160 28q80 35 80 108v215h74v-399h-74zM51 -1v61h608v-61h-608z" />
    <glyph glyph-name="v" unicode="v" horiz-adv-x="636" 
d="M361 0h-60l-330 488h89l270 -411l251 411h83z" />
    <glyph glyph-name="w" unicode="w" horiz-adv-x="1041" 
d="M755 0h-62l-166 260l-155 -260h-61l-313 488h87l256 -409l143 248l-104 161h88l255 -409l237 409h82z" />
    <glyph glyph-name="x" unicode="x" horiz-adv-x="630" 
d="M582 0l-267 211l-267 -211h-105l320 252l-292 236h106l238 -195l243 195h102l-292 -236l319 -252h-105z" />
    <glyph glyph-name="y" unicode="y" 
d="M325 -179q-107 0 -181 28q-112 41 -119 159h72q8 -65 62 -95.5t169 -30.5q249 0 249 145v27q-79 -76 -240 -76q-111 0 -184 37q-97 48 -97 151v322h74v-321q0 -128 207 -128q108 0 169 41q71 46 71 139v269h74v-462q0 -205 -326 -205z" />
    <glyph glyph-name="z" unicode="z" horiz-adv-x="639" 
d="M16 0v53l471 375h-432v60h546v-52l-473 -376h496v-60h-608z" />
    <glyph glyph-name="braceleft" unicode="{" horiz-adv-x="472" 
d="M328 -168q-127 0 -127 112v218q0 53 -21 66q-16 11 -82 32v48q36 10 84 31q19 16 19 65v218q0 112 127 112h38v-62h-37q-37 0 -47 -18q-8 -13 -8 -56v-196q0 -68 -33 -100q-10 -10 -29 -19q19 -9 29 -18q33 -30 33 -101v-195q0 -44 7 -57q11 -18 48 -18h37v-62h-38z" />
    <glyph glyph-name="bar" unicode="|" horiz-adv-x="315" 
d="M121 -32v738h73v-738h-73z" />
    <glyph glyph-name="braceright" unicode="}" horiz-adv-x="472" 
d="M270 212q-7 -18 -7 -50v-218q0 -112 -128 -112h-37v62h36q37 0 48 18q8 13 8 57v195q0 71 32 101q10 9 29 18q-19 9 -29 19q-32 32 -32 100v196q0 43 -9 56q-10 18 -47 18h-36v62h37q128 0 128 -112v-218q0 -53 20 -66q16 -10 83 -30v-48q-67 -21 -83 -32q-8 -5 -13 -16z
" />
    <glyph glyph-name="asciitilde" unicode="~" horiz-adv-x="740" 
d="M513 351q-49 0 -152 26q-96 25 -134 25q-73 0 -89 -52h-89q17 62 74 85q48 20 106 20q49 0 150 -27q95 -25 134 -25q34 0 59 12q22 10 31 41h89q-16 -59 -66 -82t-113 -23z" />
    <glyph glyph-name="exclamdown" unicode="&#xa1;" horiz-adv-x="262" 
d="M132 459q-37 0 -37 31v61q0 32 37 32t37 -32v-61q0 -31 -37 -31zM94 -95v516h73v-516h-73z" />
    <glyph glyph-name="cent" unicode="&#xa2;" 
d="M551 18q-80 -31 -181 -31q-85 0 -153 20l-31 -43h-82l49 70q-130 68 -130 203q0 137 116 208q97 59 246 59q48 0 91 -8l38 55h83l-52 -73q98 -38 136 -136l-69 -25q-29 80 -104 107l-253 -363q50 -13 114 -13q84 0 149 26q77 31 99 111l71 -22q-35 -104 -137 -145z
M382 443q-122 0 -199 -48q-87 -54 -87 -158q0 -99 94 -150l247 353q-26 3 -55 3z" />
    <glyph glyph-name="sterling" unicode="&#xa3;" horiz-adv-x="788" 
d="M201 416h403l-17 -61h-386v-58h368l-14 -61h-354q5 -89 85 -139q77 -48 193 -48q127 0 218 65l60 -36q-121 -90 -276 -90q-144 0 -238 58q-110 67 -115 190h-106l14 61h92v58h-77l21 61h56q2 128 115 196q96 59 238 59q155 0 275 -89l-59 -39q-91 67 -218 67
q-117 0 -194 -48q-82 -52 -84 -146z" />
    <glyph glyph-name="currency" unicode="&#xa4;" horiz-adv-x="788" 
d="M649 192l-136 81q-57 -27 -132 -27t-133 28l-137 -82l-61 35l140 84q-34 33 -34 76q0 44 35 78l-141 85l61 35l138 -83q58 26 130 26q75 0 132 -26l138 83l61 -35l-141 -85q37 -34 37 -77q0 -44 -36 -78l140 -83zM485 450q-46 21 -104 21t-102 -20q-51 -23 -51 -63
t51 -64q45 -20 102 -20q58 0 102 20q53 23 53 63t-51 63z" />
    <glyph glyph-name="yen" unicode="&#xa5;" horiz-adv-x="871" 
d="M474 323v-22h286v-61h-286v-58h286v-61h-286v-121h-73v121h-287v61h287v58h-287v61h287v22l-451 355h107l379 -298l381 298h105z" />
    <glyph glyph-name="brokenbar" unicode="&#xa6;" horiz-adv-x="315" 
d="M121 356v340h73v-340h-73zM121 -23v340h73v-340h-73z" />
    <glyph glyph-name="section" unicode="&#xa7;" horiz-adv-x="788" 
d="M568 146q87 -35 87 -105q0 -80 -96 -120q-69 -29 -155 -29q-290 0 -290 189h74q0 -66 48 -97t161 -31q69 0 119 18q65 23 65 70q0 52 -103 67l-208 30q-52 8 -104 44q-61 42 -54 100q9 80 107 114q-87 36 -87 106q0 81 94 120q69 29 156 29q291 0 292 -190h-74
q0 67 -48.5 98t-161.5 31q-67 0 -119 -19q-66 -24 -66 -69q0 -38 67 -57q50 -14 174 -29q232 -27 232 -143q0 -91 -110 -127zM379 357q-160 0 -191 -63v-11q0 -48 77 -75q64 -22 141 -22q194 0 197 84q-30 87 -224 87z" />
    <glyph glyph-name="dieresis" unicode="&#xa8;" horiz-adv-x="289" 
d="M223 547q-36 0 -36 23v32q0 22 36 22q38 0 38 -22v-32q0 -23 -38 -23zM67 547q-36 0 -36 23v32q0 22 36 22q37 0 37 -22v-32q0 -23 -37 -23z" />
    <glyph glyph-name="copyright" unicode="&#xa9;" horiz-adv-x="756" 
d="M385 236q-127 0 -224 46q-125 59 -125 171q0 111 124 171q99 48 222 48t223 -48q127 -60 127 -170t-125 -170q-99 -48 -222 -48zM565 573q-79 38 -180 38q-102 0 -182 -38q-91 -44 -91 -119t90 -120q79 -38 180 -38t181 38q93 45 93 119q0 76 -91 120zM396 306
q-83 0 -143 30q-77 39 -77 115t75 113q57 28 139 28q164 0 194 -127h-77q-20 66 -118 66q-56 0 -94 -18q-43 -21 -43 -62q0 -42 46 -65q40 -19 98 -19q82 0 113 70h83q-59 -131 -196 -131z" />
    <glyph glyph-name="ordfeminine" unicode="&#xaa;" horiz-adv-x="510" 
d="M399 348v29q-56 -35 -147 -35q-88 0 -147 37q-69 43 -69 121q0 80 70 122q60 36 149 36q90 0 144 -33v32h76v-309h-76zM252 599q-62 0 -99 -25q-41 -26 -41 -74q0 -49 39 -74t101 -25q61 0 102 25q45 27 45 74q0 50 -40 74.5t-107 24.5z" />
    <glyph glyph-name="guillemotleft" unicode="&#xab;" horiz-adv-x="528" 
d="M230 253v41l247 111v-63l-148 -68l148 -69v-60zM74 253v41l246 111v-63l-148 -68l148 -69v-60z" />
    <glyph glyph-name="logicalnot" unicode="&#xac;" horiz-adv-x="813" 
d="M679 134v115h-635v53h708v-168h-73z" />
    <glyph glyph-name="registered" unicode="&#xae;" horiz-adv-x="733" 
d="M370 236q-124 0 -222 47q-125 59 -125 170t124 171q99 48 222 48q124 0 223 -47q125 -60 125 -171q0 -113 -124 -172q-97 -46 -223 -46zM551 574q-78 37 -181 37q-102 0 -181 -37q-90 -44 -90 -120q0 -77 89 -120q77 -38 181 -38q101 0 180 38q92 43 92 119q0 77 -90 121
zM514 447q23 -20 23 -52v-81h-77v80q0 23 -59 23h-96v-103h-76v275h176q136 0 136 -84q0 -35 -27 -58zM405 527h-100v-48h93q67 0 67 26q0 22 -60 22z" />
    <glyph glyph-name="degree" unicode="&#xb0;" horiz-adv-x="567" 
d="M283 385q-78 0 -142 29q-82 38 -82 106q0 69 81 106q64 29 142 29q79 0 143 -28q83 -37 83 -106t-83 -106q-64 -30 -142 -30zM388 579q-45 20 -105 20q-57 0 -101 -19q-51 -22 -51 -59q0 -38 51 -60q44 -20 101 -20q59 0 104 20q50 22 50 59q0 38 -49 59z" />
    <glyph glyph-name="plusminus" unicode="&#xb1;" horiz-adv-x="850" 
d="M462 218v-158h-74v158h-257v60h257v155h74v-155h259v-60h-259zM132 -3v60h590v-60h-590z" />
    <glyph glyph-name="twosuperior" unicode="&#xb2;" horiz-adv-x="529" 
d="M27 256q0 135 199 212l108 40q67 28 67 43q0 50 -134 50q-84 0 -119 -26t-35 -84h-77q0 171 226 171q215 0 215 -112q0 -56 -106 -96l-118 -45q-116 -44 -142 -93h393v-60h-477z" />
    <glyph glyph-name="threesuperior" unicode="&#xb3;" horiz-adv-x="575" 
d="M438 273q-63 -21 -144 -21q-94 0 -160 25q-95 36 -95 118v31h78v-39q0 -74 172 -74q171 0 171 65q0 63 -154 63h-70v60h72q141 0 141 51q0 49 -148 49q-91 0 -128.5 -24.5t-37.5 -79.5h-77q0 165 242 165q78 0 140 -21q87 -29 87 -89q0 -53 -56 -81q66 -31 66 -93
q0 -73 -99 -105z" />
    <glyph glyph-name="acute" unicode="&#xb4;" horiz-adv-x="286" 
d="M91 536q-11 -7 -25 -7q-15 0 -26.5 8t-11.5 18q0 11 14 19l153 91q12 8 26 8q15 0 26.5 -8t11.5 -19t-15 -20z" />
    <glyph glyph-name="mu1" unicode="&#xb5;" 
d="M526 3q-13 -5 -13 -10q0 -26 109 -26v-63q-71 0 -117 14q-67 21 -73 64q-31 -3 -63 -3q-161 0 -239 75v-225h-74v659h74v-269q0 -93 70 -139q61 -41 169 -41q208 0 208 128v321h74v-322q0 -116 -125 -163z" />
    <glyph glyph-name="paragraph" unicode="&#xb6;" horiz-adv-x="670" 
d="M536 -133v750h-72v-750h-73v364q-110 0 -202 44q-127 62 -127 180q0 113 125 175q99 49 225 49q5 0 10 -1h187v-811h-73z" />
    <glyph glyph-name="cedilla" unicode="&#xb8;" horiz-adv-x="350" 
d="M196 -34q132 0 132 -69q0 -71 -162 -71q-52 0 -160 19l41 49q73 -14 115 -14q87 0 87 21q0 9 -60 12q-38 2 -73 -9v33l11 72h71z" />
    <glyph glyph-name="onesuperior" unicode="&#xb9;" horiz-adv-x="387" 
d="M225 260v311l-121 -52h-158l301 134h58v-393h-80z" />
    <glyph glyph-name="ordmasculine" unicode="&#xba;" horiz-adv-x="558" 
d="M277 350q-92 0 -156 31q-81 41 -81 122t84 121q65 32 157 32q90 0 155 -33q84 -41 84 -120q0 -81 -86 -122q-66 -31 -157 -31zM396 578q-47 23 -118 23q-68 0 -114 -23q-53 -26 -53 -75q0 -50 53 -76q45 -22 114 -22q70 0 116 22q55 26 55 76q0 49 -53 75z" />
    <glyph glyph-name="guillemotright" unicode="&#xbb;" horiz-adv-x="514" 
d="M230 145v60l147 69l-147 68v63l247 -111v-41zM74 145v60l147 69l-147 68v63l246 -111v-41z" />
    <glyph glyph-name="onequarter" unicode="&#xbc;" horiz-adv-x="1102" 
d="M919 128v-128h-72v128h-380l242 288h86l-192 -229h244v230l72 -2v-228h125v-59h-125zM312 0h-83l480 694h82zM256 247v328l-125 -56h-147l290 135h55v-407h-73z" />
    <glyph glyph-name="onehalf" unicode="&#xbd;" horiz-adv-x="1084" 
d="M568 0q4 139 188 212q57 22 115 45q72 31 72 50q0 55 -136 55q-84 0 -120 -27.5t-37 -88.5h-71q2 174 223 174q211 0 211 -115q0 -56 -97 -94q-43 -17 -121 -50q-123 -51 -147 -103h392v-58h-472zM297 0h-83l481 694h83zM241 247v328l-124 -56h-148l291 135h55v-407h-74z
" />
    <glyph glyph-name="threequarters" unicode="&#xbe;" horiz-adv-x="1223" 
d="M1042 128v-128h-72v128h-380l243 288h86l-193 -229h244v230l72 -2v-228h124v-59h-124zM435 0h-83l481 694h82zM452 260q-62 -21 -143 -21q-251 0 -251 146v30h70v-38q0 -80 177 -80q175 0 175 71q0 68 -159 68h-66v58h68q145 0 145 56q0 54 -152 54q-91 0 -130 -26
t-40 -83h-70q3 167 239 167q78 0 138 -21q86 -29 86 -91q0 -56 -62 -85q74 -32 74 -97q0 -75 -99 -108z" />
    <glyph glyph-name="questiondown" unicode="&#xbf;" 
d="M346 475q-36 0 -36 31v61q0 32 36 32q37 0 37 -32v-61q0 -31 -37 -31zM530 -59q-80 -36 -198 -36q-106 0 -186 31q-114 45 -114 140q0 64 71 123q67 46 134 91q72 53 72 104v44h74v-40q0 -102 -144 -186q-81 -47 -106 -72q-28 -28 -28 -64q0 -60 81 -88q61 -22 147 -22
q123 0 184 41t74 132l68 -31q-22 -119 -129 -167z" />
    <glyph glyph-name="Agrave" unicode="&#xc0;" horiz-adv-x="913" 
d="M555 683q-21 -10 -44 3l-154 118q-13 10 -13 23q0 16 17 26q9 6 20 6q13 0 26 -10l154 -116q13 -10 13 -24q0 -17 -19 -26zM835 0l-131 212h-490l-134 -212h-86l438 687h63l424 -687h-84zM464 600l-211 -327h413z" />
    <glyph glyph-name="Aacute" unicode="&#xc1;" horiz-adv-x="913" 
d="M408 689q-12 -9 -26 -9q-15 0 -26.5 9.5t-11.5 22.5t13 23l154 117q13 9 27 9t25 -9.5t11 -22.5t-13 -23zM835 0l-131 212h-490l-134 -212h-86l438 687h63l424 -687h-84zM464 600l-211 -327h413z" />
    <glyph glyph-name="Acircumflex" unicode="&#xc2;" horiz-adv-x="913" 
d="M565 675l-107 102l-107 -102h-92l176 172h46l180 -172h-96zM835 0l-131 212h-490l-134 -212h-86l438 687h63l424 -687h-84zM464 600l-211 -327h413z" />
    <glyph glyph-name="Atilde" unicode="&#xc3;" horiz-adv-x="913" 
d="M632 708q-34 -20 -72 -20q-31 0 -102 27q-61 25 -81 25q-17 0 -30.5 -10t-17.5 -55l-66 31q0 54 45 78q35 17 71 17q30 0 100 -27q61 -25 81 -25q18 0 32 10t16 54l68 -28q-6 -54 -44 -77zM835 0l-131 211h-490l-134 -211h-86l438 685h63l424 -685h-84zM464 598
l-211 -326h413z" />
    <glyph glyph-name="Adieresis" unicode="&#xc4;" horiz-adv-x="913" 
d="M537 683q-35 0 -35 32v52q0 32 35 32q38 0 38 -32v-52q0 -32 -38 -32zM382 683q-37 0 -37 32v52q0 32 37 32t37 -32v-52q0 -32 -37 -32zM835 0l-131 211h-490l-134 -211h-86l438 685h63l424 -685h-84zM464 598l-210 -326h412z" />
    <glyph glyph-name="Aring" unicode="&#xc5;" horiz-adv-x="913" 
d="M458 691q-45 0 -82 19q-46 26 -46 72t46 71q37 20 82 20t81 -20q47 -25 47 -71q0 -45 -44 -70q-36 -21 -84 -21zM835 0l-131 212h-490l-134 -212h-86l438 688h63l424 -688h-84zM458 810q-21 0 -36.5 -8t-15.5 -20t15.5 -20t36.5 -8t37 8t16 20q0 28 -53 28zM464 600
l-211 -327h413z" />
    <glyph glyph-name="AE" unicode="&#xc6;" horiz-adv-x="1454" 
d="M774 0v323h-341l-409 -323h-105l861 678h628v-61h-559v-233h62v-1h426v-60h-488l1 -262h565v-61h-641zM511 384h263l2 206z" />
    <glyph glyph-name="Ccedilla" unicode="&#xc7;" horiz-adv-x="971" 
d="M872 515q-102 108 -329 108q-172 0 -289 -66q-134 -77 -134 -223t127 -222q110 -66 281 -66q219 0 332 110l69 -31q-148 -140 -400 -140q-193 0 -322 74q-160 92 -160 271q0 184 163 279q133 76 333 76q262 0 397 -139zM535 -8q132 0 132 -82q0 -84 -162 -84
q-52 0 -163 23l45 55q72 -16 114 -16q86 0 86 26q0 13 -59 16q-38 3 -73 -11v38l11 86h71z" />
    <glyph glyph-name="Egrave" unicode="&#xc8;" horiz-adv-x="761" 
d="M478 674q-25 -13 -47 4l-152 116q-14 10 -14 25q0 16 18 24q24 14 46 -3l153 -116q13 -10 13 -24q0 -17 -17 -26zM55 0v687h701v-62h-629v-237h557v-61h-557v-266h636v-61h-708z" />
    <glyph glyph-name="Eacute" unicode="&#xc9;" horiz-adv-x="761" 
d="M330 678q-12 -9 -26 -9q-16 0 -27 9.5t-11 21.5q0 14 13 24l154 117q11 8 25 8q15 0 26.5 -9.5t11.5 -21.5q0 -14 -14 -24zM55 0v687h701v-62h-629v-237h557v-61h-557v-266h636v-61h-708z" />
    <glyph glyph-name="Ecircumflex" unicode="&#xca;" horiz-adv-x="761" 
d="M485 685l-107 102l-107 -102h-91l175 172h47l181 -172h-98zM55 0v687h701v-61h-629v-238h557v-61h-557v-265h636v-62h-708z" />
    <glyph glyph-name="Edieresis" unicode="&#xcb;" horiz-adv-x="761" 
d="M459 691q-37 0 -37 32v52q0 32 37 32q36 0 36 -32v-52q0 -32 -36 -32zM302 691q-35 0 -35 32v52q0 32 35 32q38 0 38 -32v-52q0 -32 -38 -32zM55 0v685h701v-61h-629v-237h557v-61h-557v-265h636v-61h-708z" />
    <glyph glyph-name="Igrave" unicode="&#xcc;" horiz-adv-x="181" 
d="M187 689q-24 -12 -46 4l-152 116q-14 10 -14 24q0 12 11.5 22t27.5 10q14 0 26 -10l152 -116q13 -11 13 -25q0 -16 -18 -25zM55 0v687h73v-687h-73z" />
    <glyph glyph-name="Iacute" unicode="&#xcd;" horiz-adv-x="181" 
d="M40 689q-12 -9 -26 -9q-16 0 -27.5 9.5t-11.5 21.5q0 13 14 24l152 116q12 10 27 10t26.5 -9.5t11.5 -21.5q0 -14 -14 -24zM55 0v687h73v-687h-73z" />
    <glyph glyph-name="Icircumflex" unicode="&#xce;" horiz-adv-x="181" 
d="M196 681l-107 102l-108 -102h-92l176 172h47l181 -172h-97zM55 0v687h73v-687h-73z" />
    <glyph glyph-name="Idieresis" unicode="&#xcf;" horiz-adv-x="181" 
d="M169 698q-36 0 -36 33v52q0 31 36 31q31 0 38 -29v-54q0 -33 -38 -33zM13 698q-39 0 -39 33v52q0 31 39 31q33 0 36 -30l1 -53q0 -33 -37 -33zM55 0v685h73v-685h-73z" />
    <glyph glyph-name="Eth" unicode="&#xd0;" horiz-adv-x="918" 
d="M374 0h-319v309h-50v62h50v307h370q198 0 315 -71q143 -86 143 -269q0 -184 -173 -271q-133 -67 -336 -67zM697 557q-98 60 -273 60h-296v-246h268v-62h-268v-248h250q181 0 292 56q140 70 140 221q0 149 -113 219z" />
    <glyph glyph-name="Ntilde" unicode="&#xd1;" horiz-adv-x="918" 
d="M621 701q-32 -19 -70 -19q-31 0 -102 27q-62 25 -82 25q-17 0 -30.5 -10t-15.5 -55l-68 31q0 52 46 76q36 19 70 19q29 0 100 -27q62 -25 82 -25q17 0 31 10t18 52l67 -25q-6 -54 -46 -79zM790 0l-662 593v-593h-73v685h73q116 -109 332 -298q232 -203 331 -294v592h73
v-685h-74z" />
    <glyph glyph-name="Ograve" unicode="&#xd2;" horiz-adv-x="1022" 
d="M608 687q-24 -11 -44 4l-155 117q-11 11 -11 23q0 13 11 22.5t25 9.5q15 0 27 -10l152 -116q14 -11 14 -25q0 -17 -19 -25zM840 67q-129 -74 -328 -74q-198 0 -328 74q-159 92 -159 276q0 182 162 272q126 69 325 69t325 -69q163 -89 163 -272t-160 -276zM797 563
q-108 60 -285 60q-174 0 -281 -59q-132 -72 -132 -221q0 -150 130 -225q110 -63 283 -63q172 0 280 61q135 75 135 227q0 148 -130 220z" />
    <glyph glyph-name="Oacute" unicode="&#xd3;" horiz-adv-x="1022" 
d="M459 695q-11 -8 -26 -8q-17 0 -26.5 9.5t-9.5 19.5q0 14 13 25l152 116q12 10 27 10t27 -9.5t12 -21.5q0 -14 -15 -25zM840 67q-129 -74 -328 -74t-328 74q-159 93 -159 276t162 272q126 69 325 69t325 -69q163 -89 163 -272t-160 -276zM797 563q-108 60 -285 60
q-174 0 -281 -59q-132 -72 -132 -221t130 -225q110 -63 283 -63q171 0 280 61q135 75 135 227q0 148 -130 220z" />
    <glyph glyph-name="Ocircumflex" unicode="&#xd4;" horiz-adv-x="1022" 
d="M616 693l-107 101l-107 -101h-92l175 171h46l181 -171h-96zM840 67q-129 -74 -328 -74t-328 74q-159 93 -159 276q0 182 162 272q126 69 325 69t325 -69q163 -89 163 -272t-160 -276zM797 563q-108 60 -285 60q-174 0 -281 -59q-132 -72 -132 -221q0 -150 130 -225
q110 -63 283 -63q172 0 280 61q135 75 135 227q0 148 -130 220z" />
    <glyph glyph-name="Otilde" unicode="&#xd5;" horiz-adv-x="1022" 
d="M605 703q-30 0 -101 27q-61 25 -81 25q-18 0 -31.5 -10t-19.5 -55l-63 32q0 51 45 75q35 19 70 19q29 0 100 -27q62 -25 81 -25q18 0 32 10t18 53l68 -28q-10 -54 -45.5 -75t-72.5 -21zM840 67q-129 -74 -328 -74q-198 0 -327 74q-160 91 -160 276q0 181 162 270
q126 70 325 70t325 -70q163 -89 163 -270q0 -184 -160 -276zM797 562q-108 59 -285 59q-174 0 -281 -58q-132 -72 -132 -220q0 -150 130 -226q110 -63 283 -63q171 0 280 61q135 75 135 228q0 147 -130 219z" />
    <glyph glyph-name="Odieresis" unicode="&#xd6;" horiz-adv-x="1022" 
d="M590 698q-37 0 -37 33v52q0 31 37 31q32 0 35 -30l1 -53q0 -33 -36 -33zM433 698q-35 0 -35 33v52q0 31 35 31q34 0 37 -30l1 -53q0 -33 -38 -33zM840 67q-129 -74 -328 -74q-198 0 -327 74q-160 91 -160 275q0 182 162 271q126 69 325 69t325 -69q163 -89 163 -271
q0 -183 -160 -275zM797 561q-108 60 -285 60q-174 0 -281 -59q-132 -71 -132 -220t130 -225q110 -63 283 -63q171 0 280 61q135 75 135 227q0 148 -130 219z" />
    <glyph glyph-name="multiply" unicode="&#xd7;" horiz-adv-x="661" 
d="M514 110l-183 105l-184 -103l-61 35l182 105l-179 103l61 36l181 -104l182 104l61 -36l-181 -103l185 -108z" />
    <glyph glyph-name="Oslash" unicode="&#xd8;" horiz-adv-x="1022" 
d="M840 65q-129 -73 -328 -73q-103 0 -186 19l-28 -40h-82l42 61q-106 40 -168 116q-65 83 -65 191q0 180 162 269q126 69 325 69q101 0 183 -17l30 44h81l-43 -64q237 -85 237 -301q0 -182 -160 -274zM724 586l-359 -519q66 -14 147 -14q168 0 277 58q138 75 138 228
q0 182 -203 247zM512 616q-174 0 -281 -58q-132 -72 -132 -219q0 -123 101 -201q43 -33 96 -51l360 517q-65 12 -144 12z" />
    <glyph glyph-name="Ugrave" unicode="&#xd9;" horiz-adv-x="896" 
d="M500 682q-58 42 -116 85q-51 39 -51 59q0 13 18 23q23 13 46 -4q55 -39 138 -102q28 -23 28 -40q0 -13 -17 -24q-22 -10 -46 3zM711 39q-91 -46 -263 -46t-265 46q-128 65 -128 222v426h73v-425q0 -207 320 -207t320 203v429h73v-428q0 -155 -130 -220z" />
    <glyph glyph-name="Uacute" unicode="&#xda;" horiz-adv-x="896" 
d="M396 684q-12 -7 -26 -7q-15 0 -26.5 9t-11.5 22t14 24l153 116q13 9 27 9q15 0 26.5 -9.5t11.5 -21.5q0 -14 -14 -24zM711 39q-91 -46 -263 -46t-265 46q-128 65 -128 222v426h73v-425q0 -207 320 -207t320 203v429h73v-428q0 -155 -130 -220z" />
    <glyph glyph-name="Ucircumflex" unicode="&#xdb;" horiz-adv-x="896" 
d="M554 683l-109 102l-107 -102h-91l176 172h46l181 -172h-96zM711 39q-91 -46 -263 -46t-265 46q-128 65 -128 222v426h73v-425q0 -207 320 -207t320 203v429h73v-428q0 -155 -130 -220z" />
    <glyph glyph-name="Udieresis" unicode="&#xdc;" horiz-adv-x="896" 
d="M526 698q-36 0 -36 33v52q0 31 36 31q37 0 37 -31v-52q0 -33 -37 -33zM370 698q-36 0 -36 33v52q0 31 36 31q38 0 38 -31v-52q0 -33 -38 -33zM711 39q-91 -46 -263 -46t-265 46q-128 64 -128 221v425h73v-424q0 -207 320 -207t320 203v428h73v-427q0 -154 -130 -219z" />
    <glyph glyph-name="Yacute" unicode="&#xdd;" horiz-adv-x="887" 
d="M393 689q-12 -9 -26 -9q-15 0 -26.5 9.5t-11.5 22.5t13 23l154 117q13 9 27 9q15 0 26.5 -9.5t11.5 -21.5q0 -14 -14 -24zM482 328v-328h-73v328l-449 359h105l379 -302l381 302h104z" />
    <glyph glyph-name="Thorn" unicode="&#xde;" horiz-adv-x="574" 
d="M317 164h-187v-164h-74v678h74v-144h189q203 0 203 -188q0 -182 -205 -182zM317 473h-187v-250l189 1q129 0 129 122q0 127 -131 127z" />
    <glyph glyph-name="germandbls" unicode="&#xdf;" horiz-adv-x="682" 
d="M531 12q-95 -42 -267 -42v61q328 0 328 176q0 90 -103 136q-85 39 -225 39v61q146 0 200 15q74 21 74 75q0 57 -57 78q-50 18 -164 18q-187 0 -187 -123v-508h-74v384h-47v62h47q0 42 4 88q11 158 260 158q298 0 291 -153q-3 -95 -112 -128q35 -15 68 -37q99 -67 99 -165
q0 -134 -135 -195z" />
    <glyph glyph-name="agrave" unicode="&#xe0;" horiz-adv-x="745" 
d="M438 499q-20 -10 -45 3l-153 115q-14 11 -14 26q0 16 18 24q24 14 47 -4l152 -115q13 -10 13 -24q0 -16 -18 -25zM623 93v69q-91 -78 -272 -78q-126 0 -217 43q-117 56 -117 169q0 116 121 172q90 42 218 42q182 0 267 -74v72h74v-415h-74zM23 -1v62h675v-62h-675z
M533 419q-73 34 -183 34q-103 0 -176 -36q-85 -42 -85 -121q0 -81 87 -122q71 -33 174 -33t180 36q93 42 93 119q0 83 -90 123z" />
    <glyph glyph-name="aacute" unicode="&#xe1;" horiz-adv-x="745" 
d="M304 502q-13 -7 -25 -7q-17 0 -28 11q-8 8 -8 18q0 15 13 24l153 116q12 9 27 9t26 -9.5t11 -22.5t-14 -23zM623 93v69q-91 -78 -272 -78q-126 0 -217 43q-117 56 -117 169q0 116 121 172q90 42 218 42q182 0 267 -74v72h74v-415h-74zM23 -1v62h675v-62h-675zM533 419
q-73 34 -183 34q-103 0 -176 -36q-85 -42 -85 -121q0 -81 87 -122q71 -33 174 -33t180 36q93 42 93 119q0 83 -90 123z" />
    <glyph glyph-name="acircumflex" unicode="&#xe2;" horiz-adv-x="745" 
d="M462 505l-107 100l-107 -100h-91l174 169h47l181 -169h-97zM623 93v69q-91 -78 -272 -78q-126 0 -217 43q-117 56 -117 169q0 116 121 172q90 42 218 42q182 0 267 -74v72h74v-415h-74zM23 -1v62h675v-62h-675zM533 420q-73 33 -183 33q-103 0 -176 -36q-85 -42 -85 -121
q0 -81 87 -122q71 -33 174 -33t180 36q93 42 93 119q0 83 -90 124z" />
    <glyph glyph-name="atilde" unicode="&#xe3;" horiz-adv-x="745" 
d="M450 514q-31 0 -102 28q-62 24 -81 24q-18 0 -31.5 -10t-19.5 -54l-63 31q0 51 46 75q36 18 70 18q29 0 100 -27q62 -24 81 -24q18 0 32 10t18 52l68 -27q-10 -54 -45.5 -75t-72.5 -21zM623 92v69q-91 -77 -272 -77q-126 0 -216 43q-118 55 -118 167q0 116 121 172
q90 42 218 42q182 0 267 -74v72h74v-414h-74zM23 -1v62h675v-62h-675zM533 418q-73 33 -183 33q-103 0 -176 -36q-85 -42 -85 -121q0 -80 87 -121q71 -32 174 -32t180 35q93 42 93 118q0 83 -90 124z" />
    <glyph glyph-name="adieresis" unicode="&#xe4;" horiz-adv-x="745" 
d="M452 509q-37 0 -37 33v51q0 31 37 31t37 -31v-51q0 -33 -37 -33zM296 509q-36 0 -36 33v51q0 31 36 31q37 0 37 -31v-51q0 -33 -37 -33zM623 92v69q-91 -77 -272 -77q-126 0 -216 42q-118 56 -118 168q0 116 121 172q90 42 218 42q182 0 267 -74v72h74v-414h-74zM23 -1
v62h675v-62h-675zM533 417q-73 34 -183 34q-103 0 -176 -36q-85 -42 -85 -121q0 -80 87 -121q71 -32 174 -32t180 35q93 42 93 118q0 83 -90 123z" />
    <glyph glyph-name="aring" unicode="&#xe5;" horiz-adv-x="745" 
d="M364 520q-45 0 -82 19q-46 25 -46 71t46 71q37 19 82 19q46 0 81 -19q46 -25 46 -71q0 -45 -43 -70q-36 -20 -84 -20zM623 93v69q-91 -78 -272 -78q-126 0 -217 44q-117 56 -117 168q0 117 121 173q90 42 218 42q182 0 267 -74v72h74v-416h-74zM23 -1v62h675v-62h-675z
M364 637q-21 0 -36.5 -8t-15.5 -19q0 -12 15.5 -19.5t36.5 -7.5t37 7.5t16 19.5q0 27 -53 27zM533 421q-73 33 -183 33q-103 0 -176 -36q-85 -42 -85 -122t87 -121q71 -33 174 -33t180 35q93 42 93 119q0 84 -90 125z" />
    <glyph glyph-name="ae" unicode="&#xe6;" horiz-adv-x="1338" 
d="M697 266v-10q28 -118 264 -118q75 0 144 19q82 22 115 74h79q-45 -82 -132 -117q-78 -32 -209 -32q-176 0 -261 62v-53h-74v67q-91 -76 -272 -76q-125 0 -215 42q-119 55 -119 165q0 114 121 169q90 41 218 41q182 0 267 -73v71h74v-68q94 70 268 70q128 0 218 -36
q127 -50 127 -159v-37zM23 -1v61h1282v-61h-1282zM697 322h530q-11 58 -85 89.5t-177 31.5q-92 0 -162 -25q-87 -32 -106 -96zM350 443q-103 0 -176 -35q-85 -42 -85 -119q0 -78 87 -118q71 -33 174 -33q95 0 170 31q89 36 101 101v20v20q-11 71 -101 106q-70 27 -170 27z
" />
    <glyph glyph-name="ccedilla" unicode="&#xe7;" 
d="M551 10q-80 -31 -181 -31q-140 0 -233 54q-114 67 -114 197q0 139 116 211q97 59 246 59q94 0 166 -29q94 -38 130 -134l-69 -25q-24 67 -78.5 97t-151.5 30q-122 0 -199 -48q-87 -56 -87 -161q0 -100 90 -150q73 -41 183 -41q84 0 149 27q77 31 99 112l71 -22
q-35 -105 -137 -146zM408 -10q131 -1 131 -81q0 -83 -162 -83q-51 0 -159 22l39 56q75 -17 116 -17q87 0 87 26q0 12 -60 16q-39 2 -74 -11v38l14 84h70z" />
    <glyph glyph-name="egrave" unicode="&#xe8;" 
d="M451 499q-21 -10 -44 4l-156 115q-11 11 -11 24q0 12 11 21.5t25 9.5q15 0 27 -9l154 -115q13 -10 13 -23q0 -18 -19 -27zM86 272q21 -131 268 -131q75 0 143 19q82 23 115 76h80q-45 -83 -132 -119q-78 -33 -209 -33q-133 0 -219 38q-119 54 -119 174q0 114 122 171
q94 43 223 43t219 -37q125 -52 125 -162v-38zM23 -1v62h675v-62h-675zM358 453q-93 0 -163 -26q-89 -32 -107 -98h532q-11 59 -86 91.5t-176 32.5z" />
    <glyph glyph-name="eacute" unicode="&#xe9;" 
d="M459 621l-158 -117q-13 -7 -24 -7q-14 0 -26 9t-12 21q0 13 14 23l153 115q21 16 48 4q16 -10 16 -25q0 -11 -11 -23zM86 272q21 -131 268 -131q75 0 143 19q82 23 115 76h80q-45 -83 -132 -119q-78 -33 -209 -33q-133 0 -219 38q-119 54 -119 174q0 114 122 171
q94 43 223 43t219 -37q125 -52 125 -162v-38zM23 -1v62h675v-62h-675zM358 453q-93 0 -163 -26q-89 -32 -107 -98h532q-11 59 -86 91.5t-176 32.5z" />
    <glyph glyph-name="ecircumflex" unicode="&#xea;" 
d="M459 505l-107 100l-107 -100h-91l176 169h46l180 -169h-97zM86 272q21 -131 268 -131q75 0 143 19q82 23 115 76h80q-45 -83 -132 -119q-78 -33 -209 -33q-133 0 -219 38q-119 54 -119 174q0 114 122 171q93 43 223 43q129 0 219 -37q125 -52 125 -162v-38zM23 -1v62h675
v-62h-675zM358 453q-93 0 -163 -26q-89 -32 -107 -98h532q-11 59 -86 91.5t-176 32.5z" />
    <glyph glyph-name="edieresis" unicode="&#xeb;" 
d="M433 509q-35 0 -35 33v51q0 31 35 31q38 0 38 -31v-51q0 -33 -38 -33zM278 509q-37 0 -37 33v51q0 31 37 31t37 -31v-51q0 -33 -37 -33zM86 271q21 -130 268 -130q75 0 143 18q82 23 115 76h80q-45 -83 -132 -119q-78 -32 -209 -32q-133 0 -219 38q-119 53 -119 172
q0 114 123 171q93 43 222 43q128 0 219 -38q125 -51 125 -161v-37zM23 -1v62h675v-62h-675zM358 451q-93 0 -163 -26q-89 -32 -107 -97h532q-11 58 -85.5 90.5t-176.5 32.5z" />
    <glyph glyph-name="igrave" unicode="&#xec;" horiz-adv-x="184" 
d="M188 499q-21 -10 -44 4q-59 42 -117 84q-51 38 -51 58q0 12 18 22q24 13 46 -4l154 -115q13 -10 13 -23q0 -17 -19 -26zM56 93v408h74v-408h-74zM52 -1v62h82v-62h-82z" />
    <glyph glyph-name="iacute" unicode="&#xed;" horiz-adv-x="184" 
d="M41 499q-12 -9 -26 -9q-16 0 -27 9.5t-11 21.5q0 13 13 24l154 115q13 9 27 9t25 -9.5t11 -21.5q0 -13 -13 -23zM56 93v408h74v-408h-74zM52 -1v62h82v-62h-82z" />
    <glyph glyph-name="icircumflex" unicode="&#xee;" horiz-adv-x="184" 
d="M191 505l-98 99l-102 -99h-89l166 169h49l170 -169h-96zM56 93v408h74v-408h-74zM52 -1v62h82v-62h-82z" />
    <glyph glyph-name="idieresis" unicode="&#xef;" horiz-adv-x="184" 
d="M174 509q-35 0 -35 33v51q0 31 35 31q38 0 38 -31v-51q0 -33 -38 -33zM19 509q-38 0 -38 33v51q0 31 38 31q36 0 36 -31v-51q0 -33 -36 -33zM56 92v406h74v-406h-74zM52 -1v62h82v-62h-82z" />
    <glyph glyph-name="eth" unicode="&#xf0;" horiz-adv-x="761" 
d="M623 -1v86q-92 -96 -272 -96q-135 0 -227 60q-107 71 -107 200q0 131 107 201q92 61 232 61q179 0 267 -92v130h-448v61h448v68h74v-679h-74zM350 450q-111 0 -182 -50q-79 -55 -79 -151q0 -97 79 -151q71 -48 182 -48t188 50q85 54 85 149q0 107 -87 159q-71 42 -186 42
z" />
    <glyph glyph-name="ntilde" unicode="&#xf1;" 
d="M521 533q-33 -19 -70 -19q-31 0 -102 28q-62 24 -82 24q-17 0 -30.5 -10t-15.5 -54l-68 30q0 51 46 76q36 18 70 18q30 0 100 -27q62 -24 82 -24q17 0 31 10t18 52l67 -27q-6 -53 -46 -77zM577 0v322q0 67 -67 99q-54 27 -139 27q-101 0 -166 -40q-75 -46 -75 -130v-278
h-74v498h74v-64q78 75 240 75q106 0 180 -34q101 -46 101 -143v-332h-74z" />
    <glyph glyph-name="ograve" unicode="&#xf2;" horiz-adv-x="736" 
d="M465 499q-20 -10 -45 3l-153 115q-14 11 -14 26q0 16 18 24q24 14 47 -4l152 -115q13 -10 13 -24q0 -16 -18 -25zM367 84q-131 0 -225 42q-125 56 -125 171t126 171q95 42 227 42t225 -42q126 -56 126 -171t-128 -171q-95 -42 -226 -42zM23 -1v62h688v-62h-688zM555 419
q-77 34 -186 34q-107 0 -183 -33q-96 -42 -96 -123t96 -123q77 -33 183 -33t182 33q97 42 97 123t-93 122z" />
    <glyph glyph-name="oacute" unicode="&#xf3;" horiz-adv-x="736" 
d="M316 499q-12 -8 -25 -8q-16 0 -27.5 9.5t-11.5 21.5q0 13 13 23l154 115q13 9 27 9q15 0 26.5 -9.5t11.5 -21.5q0 -13 -14 -23zM367 84q-131 0 -225 42q-125 56 -125 171t126 171q95 42 227 42t225 -42q126 -56 126 -171t-128 -171q-95 -42 -226 -42zM23 -1v62h688v-62
h-688zM555 419q-77 34 -186 34q-107 0 -183 -33q-96 -42 -96 -123t96 -123q77 -33 183 -33t182 33q97 42 97 123t-93 122z" />
    <glyph glyph-name="ocircumflex" unicode="&#xf4;" horiz-adv-x="736" 
d="M474 505l-107 100l-108 -100h-92l176 169h47l181 -169h-97zM367 84q-131 0 -225 42q-125 56 -125 171t126 171q95 42 227 42t225 -42q126 -56 126 -171t-128 -171q-94 -42 -226 -42zM23 -1v62h688v-62h-688zM555 419q-77 34 -186 34q-107 0 -183 -33q-96 -42 -96 -123
t96 -123q77 -33 183 -33t182 33q97 42 97 123q0 82 -93 122z" />
    <glyph glyph-name="otilde" unicode="&#xf5;" horiz-adv-x="736" 
d="M530 534q-32 -20 -70 -20q-30 0 -102 28q-63 24 -80 24q-18 0 -31.5 -9.5t-17.5 -54.5l-66 31q0 53 46 76q34 17 70 17q30 0 100 -27q61 -24 81 -24q27 0 39 18q9 12 16 44l62 -28q-8 -52 -47 -75zM367 84q-130 0 -225 42q-125 55 -125 169q0 115 127 171q94 42 226 42
q131 0 225 -42q126 -56 126 -171q0 -114 -128 -170q-95 -41 -226 -41zM23 -1v62h688v-62h-688zM555 418q-77 33 -186 33q-107 0 -183 -33q-96 -41 -96 -123q0 -80 96 -122q77 -32 183 -32t182 33q97 41 97 121q0 82 -93 123z" />
    <glyph glyph-name="odieresis" unicode="&#xf6;" horiz-adv-x="736" 
d="M447 509q-37 0 -37 33v51q0 31 37 31q36 0 36 -31v-51q0 -33 -36 -33zM290 509q-35 0 -35 33v51q0 31 35 31q38 0 38 -31v-51q0 -33 -38 -33zM367 84q-130 0 -225 42q-125 55 -125 169q0 115 127 171q94 42 226 42q131 0 225 -42q126 -56 126 -171q0 -114 -128 -170
q-95 -41 -226 -41zM23 -1v62h688v-62h-688zM555 417q-77 34 -186 34q-107 0 -183 -33q-96 -42 -96 -123q0 -80 96 -122q77 -32 183 -32t182 32q97 42 97 122q0 82 -93 122z" />
    <glyph glyph-name="divide" unicode="&#xf7;" horiz-adv-x="799" 
d="M400 282q-36 0 -36 30v57q0 29 36 29q37 0 37 -29v-57q0 -30 -37 -30zM45 211v58h689v-58h-689zM400 74q-36 0 -36 30v57q0 30 36 30q37 0 37 -30v-57q0 -30 -37 -30z" />
    <glyph glyph-name="oslash" unicode="&#xf8;" horiz-adv-x="736" 
d="M367 84q-75 0 -135 12l-34 -38h-88l53 59q-146 56 -146 176q0 114 127 169q95 41 226 41q68 0 125 -10l42 46h85l-56 -66q155 -55 155 -180q0 -113 -128 -168q-95 -41 -226 -41zM23 -1v61h688v-61h-688zM581 397q-27 17 -59 28l-246 -277q42 -7 93 -7q107 0 182 32
q97 40 97 120q0 61 -67 104zM369 447q-109 0 -184 -32q-95 -40 -95 -122q0 -83 115 -128l244 277q-37 5 -80 5z" />
    <glyph glyph-name="ugrave" unicode="&#xf9;" 
d="M451 495q-21 -10 -44 4l-154 115q-13 10 -13 23q0 16 17 26q9 6 20 6q13 0 26 -10l154 -115q13 -9 13 -23q0 -17 -19 -26zM577 92v53q-80 -62 -240 -62q-103 0 -174 26q-107 39 -107 129v261h74v-261q0 -98 207 -98q98 0 160 28q80 36 80 112v219h74v-407h-74zM51 -1v62
h608v-62h-608z" />
    <glyph glyph-name="uacute" unicode="&#xfa;" 
d="M304 503q-12 -8 -26 -8q-15 0 -26.5 9t-11.5 22t13 22l153 116q12 9 27 9t26.5 -9.5t11.5 -21.5q0 -14 -14 -24zM577 92v53q-80 -62 -240 -62q-103 0 -174 26q-107 39 -107 129v262h74v-261q0 -99 207 -99q98 0 160 28q80 36 80 112v220h74v-408h-74zM51 -1v62h608v-62
h-608z" />
    <glyph glyph-name="ucircumflex" unicode="&#xfb;" 
d="M459 505l-107 100l-107 -100h-91l176 169h46l180 -169h-97zM577 92v53q-80 -62 -240 -62q-103 0 -174 26q-107 39 -107 129v262h74v-261q0 -99 207 -99q98 0 160 28q80 36 80 112v220h74v-408h-74zM51 -1v62h608v-62h-608z" />
    <glyph glyph-name="udieresis" unicode="&#xfc;" 
d="M432 509q-36 0 -36 33v51q0 31 36 31q38 0 38 -31v-51q0 -33 -38 -33zM277 509q-37 0 -37 33v51q0 31 37 31q36 0 36 -31v-51q0 -33 -36 -33zM577 91v53q-80 -61 -240 -61q-103 0 -174 25q-107 39 -107 129v260h74v-260q0 -97 207 -97q98 0 160 28q80 35 80 110v219h74
v-406h-74zM51 -1v62h608v-62h-608z" />
    <glyph glyph-name="yacute" unicode="&#xfd;" horiz-adv-x="683" 
d="M447 620l-158 -118q-13 -7 -24 -7q-16 0 -28.5 9t-12.5 22t17 24l153 115q21 16 48 4q16 -11 16 -25q0 -11 -11 -24zM325 -179q-107 0 -181 28q-112 42 -119 162h72q8 -66 62 -97.5t169 -31.5q249 0 249 148v27q-79 -77 -240 -77q-111 0 -185 37q-96 50 -96 154v326h74
v-325q0 -130 207 -130q108 0 169 41q71 47 71 141v273h74v-468q0 -208 -326 -208z" />
    <glyph glyph-name="thorn" unicode="&#xfe;" horiz-adv-x="761" 
d="M628 41q-89 -60 -232 -60q-177 0 -266 93v-242h-74v846h74v-261q88 92 264 92q143 0 232 -59q107 -70 107 -204q0 -135 -105 -205zM402 448q-114 0 -188 -47q-84 -54 -84 -153q0 -107 79 -159q70 -47 192 -47q113 0 183 49q77 54 77 155q0 102 -82 156q-69 46 -177 46z
" />
    <glyph glyph-name="ydieresis" unicode="&#xff;" horiz-adv-x="688" 
d="M423 508q-36 0 -36 33v52q0 31 36 31q33 0 36 -30l1 -53q0 -33 -37 -33zM267 508q-37 0 -37 33v52q0 31 37 31q30 0 37 -29v-54q0 -33 -37 -33zM325 -179q-107 0 -181 28q-112 42 -119 161h72q8 -66 62 -97t169 -31q249 0 249 147v27q-79 -76 -240 -76q-111 0 -184 37
q-97 49 -97 153v325h74v-324q0 -130 207 -130q108 0 169 41q71 47 71 141v272h74v-467q0 -207 -326 -207z" />
    <glyph glyph-name="OE" unicode="&#x152;" horiz-adv-x="1363" 
d="M636 0q-56 -8 -119 -8q-196 0 -326 74q-162 92 -162 271q0 181 161 273q129 73 327 73q46 0 89 -5h721v-61h-504q159 -83 179 -234h283v-60h-280q-7 -172 -175 -263h505v-60h-699zM823 543q-59 41 -139 61v-221h244q-15 96 -105 160zM684 323v-251q107 27 171 87
q71 67 76 164h-247zM612 617q-45 5 -95 5q-174 0 -285 -64q-129 -75 -129 -221t129 -221q111 -64 285 -64q50 0 95 6v559z" />
    <glyph glyph-name="oe" unicode="&#x153;" horiz-adv-x="1362" 
d="M686 266l36 32l-2 -23q13 -137 268 -137q75 0 144 19q82 22 115 74h79q-45 -82 -132 -117q-78 -32 -209 -32q-230 0 -305 103q-23 -26 -59 -47q-96 -56 -254 -56q-130 0 -224 41q-126 55 -126 167q0 113 127 168q95 41 226 41q230 0 314 -107q88 107 308 107
q128 0 218 -36q127 -50 127 -159v-37zM23 -1v61h1309v-61h-1309zM992 443q-93 0 -163 -25q-87 -32 -106 -96h531q-13 64 -101 96q-69 25 -161 25zM555 410q-77 33 -186 33q-107 0 -183 -32q-96 -41 -96 -121q0 -79 96 -119q77 -33 183 -33t182 33q97 40 97 119q0 80 -93 120
z" />
    <glyph glyph-name="Scaron" unicode="&#x160;" horiz-adv-x="867" 
d="M452 702h-47l-176 172h92l107 -102l107 102h95zM686 29q-101 -36 -241 -36q-160 0 -262 37q-156 57 -156 195v31h73v-27q0 -174 347 -174q110 0 189 22q114 33 114 104q0 49 -40 74q-30 19 -102 34q-34 7 -192 32q-84 14 -119 20q-100 19 -152 46q-89 47 -89 128
q0 179 364 179q380 0 385 -230h-73q-8 111 -110 145q-68 24 -202 24q-290 0 -290 -118q0 -56 75 -86q55 -21 188 -38q245 -32 327 -68q104 -46 104 -145q0 -101 -138 -149z" />
    <glyph glyph-name="scaron" unicode="&#x161;" horiz-adv-x="656" 
d="M346 514h-46l-176 170h92l107 -100l107 100h97zM336 -13q-303 0 -303 213h76q0 -78 53 -114t175 -36q197 0 197 85q0 53 -132 76l-130 14q-94 12 -143 38q-67 35 -67 100q0 81 95 121q69 28 156 28q293 0 293 -191h-77q0 67 -47 97q-50 31 -162 31q-66 0 -117 -18
q-65 -24 -65 -68q0 -53 128 -69l143 -19q201 -27 201 -140q0 -85 -101 -123q-69 -25 -173 -25z" />
    <glyph glyph-name="Ydieresis" unicode="&#x178;" horiz-adv-x="895" 
d="M532 698q-36 0 -36 33v52q0 31 36 31q31 0 38 -29v-54q0 -33 -38 -33zM377 698q-37 0 -37 33v52q0 31 37 31q32 0 35 -30l1 -53q0 -33 -36 -33zM486 327v-327h-73v327l-452 358h108l379 -301l381 301h104z" />
    <glyph glyph-name="florin" unicode="&#x192;" horiz-adv-x="788" 
d="M811 606q-271 0 -320 -141l-6 -18h149l-23 -62h-148l-122 -365q-62 -188 -410 -188l21 60q270 0 313 127l122 366h-100l26 62h96q4 14 11 32q67 187 409 187z" />
    <glyph glyph-name="circumflex" unicode="&#x2c6;" horiz-adv-x="350" 
d="M280 540l-107 77l-107 -77h-96l179 134h46l185 -134h-100z" />
    <glyph glyph-name="macron" unicode="&#xaf;" horiz-adv-x="423" 
d="M25 597v19h375v-19h-375z" />
    <glyph glyph-name="macron" unicode="&#x2c9;" horiz-adv-x="423" 
d="M25 597v19h375v-19h-375z" />
    <glyph glyph-name="tilde" unicode="&#x2dc;" horiz-adv-x="494" 
d="M408 563q-33 -13 -71 -13q-29 0 -99 18q-63 15 -83 15q-17 0 -33 -7q-11 -5 -13 -34l-68 20q0 38 47 54q35 12 69 12q29 0 99 -18q63 -16 81 -16q20 0 36 8q12 5 15 32l69 -18q-11 -39 -49 -53z" />
    <glyph glyph-name="endash" unicode="&#x2013;" horiz-adv-x="668" 
d="M-23 254v20h712v-20h-712z" />
    <glyph glyph-name="emdash" unicode="&#x2014;" horiz-adv-x="1207" 
d="M-23 254v20h1250v-20h-1250z" />
    <glyph glyph-name="quoteleft" unicode="&#x2018;" horiz-adv-x="236" 
d="M128 519q-9 -19 -35 -19q-37 0 -37 26q0 6 3 11l56 122q9 18 35 18q39 0 39 -26q0 -5 -3 -11z" />
    <glyph glyph-name="quoteright" unicode="&#x2019;" horiz-adv-x="236" 
d="M129 519q-9 -18 -36 -18q-37 0 -37 25q0 5 3 12l58 121q9 18 34 18q37 0 37 -26q0 -5 -2 -10z" />
    <glyph glyph-name="quotesinglbase" unicode="&#x201a;" horiz-adv-x="394" 
d="M180 -72q-9 -19 -42 -19q-30 0 -30 26q0 6 2 11l58 122q9 18 34 18q37 0 37 -26q0 -5 -2 -10z" />
    <glyph glyph-name="quotedblleft" unicode="&#x201c;" horiz-adv-x="360" 
d="M269 519q-9 -19 -34 -19q-38 0 -38 27q0 5 3 10l57 122q9 18 35 18q38 0 38 -25q0 -6 -3 -12zM128 519q-9 -19 -35 -19q-37 0 -37 26q0 6 3 11l56 122q9 18 35 18q39 0 39 -26q0 -5 -3 -11z" />
    <glyph glyph-name="quotedblright" unicode="&#x201d;" horiz-adv-x="373" 
d="M271 519q-9 -18 -36 -18q-38 0 -38 25q0 6 3 12l58 121q9 18 34 18q37 0 37 -26q0 -5 -2 -10zM129 519q-9 -18 -36 -18q-37 0 -37 25q0 5 3 12l58 121q9 18 34 18q37 0 37 -26q0 -5 -2 -10z" />
    <glyph glyph-name="quotedblbase" unicode="&#x201e;" horiz-adv-x="474" 
d="M322 -72q-9 -18 -40 -18q-33 0 -33 30q15 25 32 63q15 33 29 65q9 18 34 18q37 0 37 -26q0 -5 -2 -10zM180 -72q-9 -19 -42 -19q-30 0 -30 26q0 6 2 11l58 122q9 18 34 18q37 0 37 -26q0 -5 -2 -10z" />
    <glyph glyph-name="dagger" unicode="&#x2020;" horiz-adv-x="466" 
d="M259 438v-495h-73v495h-158v62h158v121h73v-121h160v-62h-160z" />
    <glyph glyph-name="daggerdbl" unicode="&#x2021;" horiz-adv-x="455" 
d="M266 39v-96h-73v96h-160v61h160v338h-160v62h160v121h73v-121h158v-62h-158v-338h158v-61h-158z" />
    <glyph glyph-name="bullet" unicode="&#x2022;" horiz-adv-x="394" 
d="M163 250q-51 0 -85 11q-26 8 -26 16v96q0 8 26 16q34 11 85 11t85 -11q27 -8 27 -16v-96q0 -8 -27 -16q-34 -11 -85 -11z" />
    <glyph glyph-name="ellipsis" unicode="&#x2026;" horiz-adv-x="861" 
d="M707 -2q-36 0 -36 23v41q0 23 36 23q37 0 37 -23v-41q0 -23 -37 -23zM452 -2q-37 0 -37 23v41q0 23 37 23t37 -23v-41q0 -23 -37 -23zM197 -2q-37 0 -37 23v41q0 23 37 23t37 -23v-41q0 -23 -37 -23z" />
    <glyph glyph-name="perthousand" unicode="&#x2030;" horiz-adv-x="1366" 
d="M1142 -19q-201 0 -201 184q0 188 202 188q204 0 204 -188q0 -184 -205 -184zM732 -19q-203 0 -203 184q0 188 204 188q203 0 203 -188q0 -184 -204 -184zM199 -1h-97l687 679h96zM232 288q-201 0 -201 183q0 187 203 187t203 -187q0 -183 -205 -183zM1142 292
q-127 0 -127 -127q0 -123 128 -123q130 0 130 123q0 127 -131 127zM732 292q-129 0 -129 -127q0 -123 130 -123q128 0 128 123q0 127 -129 127zM232 597q-127 0 -127 -126q0 -123 129 -123t129 123q0 126 -131 126z" />
    <glyph glyph-name="guilsinglleft" unicode="&#x2039;" horiz-adv-x="397" 
d="M74 253v41l246 111v-63l-148 -68l148 -69v-60z" />
    <glyph glyph-name="guilsinglright" unicode="&#x203a;" horiz-adv-x="397" 
d="M74 145v60l147 69l-147 68v63l246 -111v-41z" />
    <glyph glyph-name="trademark" unicode="&#x2122;" horiz-adv-x="1065" 
d="M938 347v229l-178 -229h-54l-187 233q1 -72 2 -233h-79v277h-114v-277h-79v277h-199v60h477l205 -255l202 255h84v-337h-80z" />
    <glyph glyph-name="minus" unicode="&#xad;" horiz-adv-x="799" 
d="M45 231v19h689v-19h-689z" />
    <glyph glyph-name="minus" unicode="&#x2212;" horiz-adv-x="799" 
d="M45 231v19h689v-19h-689z" />
    <glyph glyph-name="periodcentered" unicode="&#xb7;" horiz-adv-x="282" 
d="M161 280q-37 0 -37 24v40q0 23 37 23q36 0 36 -23v-40q0 -24 -36 -24z" />
    <glyph glyph-name="periodcentered" unicode="&#x2219;" horiz-adv-x="282" 
d="M161 280q-37 0 -37 24v40q0 23 37 23q36 0 36 -23v-40q0 -24 -36 -24z" />
    <glyph glyph-name="nonbreakingspace" unicode="&#xa0;" 
 />
  </font>
</defs>
</svg>
